<svg width="23" height="23" viewBox="0 0 23 23" fill="none" xmlns="http://www.w3.org/2000/svg">
<circle cx="11.5" cy="11.5" r="11.5" fill="white"/>
<path d="M11.5 0C5.03125 0 0 5.03125 0 11.5C0 19.0469 6.82812 22.2812 7.90625 22.2812C8.625 22.2812 8.625 21.9219 8.625 21.5625V19.7656C6.10938 20.4844 5.03125 19.0469 4.67188 17.9688C4.67188 17.9688 4.67188 17.6094 3.95312 16.8906C3.59375 16.5312 2.15625 15.8125 3.59375 15.8125C4.67188 15.8125 5.39062 17.25 5.39062 17.25C6.46875 18.6875 7.90625 18.3281 8.625 17.9688C8.625 17.25 9.34375 16.5312 9.34375 16.5312C6.46875 16.1719 4.3125 15.0938 4.3125 11.1406C4.3125 9.70312 4.67188 8.625 5.39062 7.90625C5.39062 7.90625 4.67188 6.46875 5.39062 4.67188C5.39062 4.67188 7.1875 4.67188 8.625 6.10938C9.70312 5.39062 13.2969 5.39062 14.375 6.10938C15.8125 4.67188 17.6094 4.67188 17.6094 4.67188C18.3281 7.1875 17.6094 7.90625 17.6094 7.90625C18.3281 8.625 18.6875 9.70312 18.6875 11.1406C18.6875 15.0938 16.1719 16.1719 13.6562 16.5312C14.0156 16.8906 14.375 17.6094 14.375 18.6875V21.5625C14.375 21.9219 14.375 22.2812 15.0938 22.2812C16.1719 22.2812 23 19.0469 23 11.5C23 5.03125 17.9688 0 11.5 0Z" fill="black"/>
</svg>
