<svg width="293" height="184" viewBox="0 0 293 184" fill="none" xmlns="http://www.w3.org/2000/svg">
<circle cx="271.695" cy="20.3339" r="20.3336" transform="rotate(-180 271.695 20.3339)" fill="white"/>
<circle cx="271.695" cy="91.498" r="20.3336" transform="rotate(-180 271.695 91.498)" fill="white"/>
<circle cx="271.692" cy="162.666" r="20.3336" transform="rotate(-180 271.692 162.666)" fill="white"/>
<circle cx="206.333" cy="60.9994" r="20.3336" transform="rotate(-180 206.333 60.9994)" fill="white"/>
<circle cx="206.333" cy="121.998" r="20.3336" transform="rotate(-180 206.333 121.998)" fill="white"/>
<line x1="272.089" y1="20.9556" x2="206.731" y2="61.6228" stroke="white" stroke-width="1.4689"/>
<line x1="272.319" y1="20.7292" x2="206.961" y2="122.397" stroke="white" stroke-width="1.4689"/>
<line x1="271.391" y1="92.1641" x2="206.033" y2="61.6637" stroke="white" stroke-width="1.4689"/>
<line x1="272.012" y1="92.1641" x2="206.654" y2="122.664" stroke="white" stroke-width="1.4689"/>
<line x1="271.083" y1="163.064" x2="205.725" y2="61.3962" stroke="white" stroke-width="1.4689"/>
<line x1="271.313" y1="163.291" x2="205.955" y2="122.623" stroke="white" stroke-width="1.4689"/>
<circle cx="20.3336" cy="163.664" r="20.3336" fill="white"/>
<circle cx="20.3336" cy="92.5001" r="20.3336" fill="white"/>
<circle cx="20.3365" cy="21.3316" r="20.3336" fill="white"/>
<circle cx="85.6949" cy="122.999" r="20.3336" fill="white"/>
<circle cx="86.3336" cy="61.3316" r="20.3336" fill="white"/>
<line x1="19.9391" y1="163.042" x2="85.2971" y2="122.375" stroke="white" stroke-width="1.4689"/>
<line x1="19.7093" y1="163.269" x2="85.0673" y2="61.601" stroke="white" stroke-width="1.4689"/>
<line x1="20.6377" y1="91.834" x2="85.9957" y2="122.334" stroke="white" stroke-width="1.4689"/>
<line x1="20.0166" y1="91.834" x2="85.3745" y2="61.3336" stroke="white" stroke-width="1.4689"/>
<line x1="20.945" y1="20.9339" x2="86.3029" y2="122.602" stroke="white" stroke-width="1.4689"/>
<line x1="20.7152" y1="20.7075" x2="86.0731" y2="61.3746" stroke="white" stroke-width="1.4689"/>
<circle cx="146.334" cy="92.3336" r="20.3336" fill="white"/>
<line x1="85.6461" y1="127.356" x2="205.646" y2="61.3565" stroke="white" stroke-width="1.4689"/>
<line x1="86.3328" y1="61.3433" x2="206.333" y2="122.345" stroke="white" stroke-width="1.4689"/>
</svg>
