<svg width="375" height="286" viewBox="0 0 375 286" fill="none" xmlns="http://www.w3.org/2000/svg">
<circle cx="191.893" cy="143.878" r="60.7265" fill="white"/>
<circle cx="324.013" cy="64.0128" r="13.0128" fill="white"/>
<path d="M305.702 74.5901C308.022 78.6085 307.207 84.3332 303.45 91.3926C299.708 98.4249 293.12 106.636 284.19 115.503C266.334 133.231 239.195 153.495 207.003 172.081C174.811 190.667 143.691 204.039 119.411 210.638C107.267 213.939 96.8617 215.538 88.9006 215.263C80.9086 214.986 75.543 212.831 73.223 208.812C70.903 204.794 71.7188 199.069 75.4754 192.01C79.2176 184.977 85.8049 176.766 94.7355 167.899C112.591 150.171 139.731 129.907 171.923 111.321C204.115 92.7349 235.234 79.3637 259.514 72.764C271.658 69.4632 282.064 67.8642 290.025 68.1395C298.017 68.4159 303.382 70.5717 305.702 74.5901Z" stroke="white"/>
<path d="M345.013 52.0598C348.981 58.9328 348.506 68.0353 344.076 78.7096C339.649 89.3756 331.308 101.52 319.711 114.38C296.521 140.098 260.387 168.594 216.804 193.756C173.221 218.919 130.476 235.963 96.6094 243.188C79.673 246.801 64.9855 247.953 53.5354 246.453C42.0761 244.952 33.9555 240.813 29.9874 233.94C26.0193 227.067 26.4945 217.964 30.9244 207.29C35.3509 196.624 43.6916 184.48 55.2888 171.619C78.4793 145.902 114.613 117.406 158.196 92.2431C201.778 67.0805 244.524 50.0361 278.391 42.8111C295.327 39.198 310.014 38.0468 321.465 39.5464C332.924 41.0471 341.044 45.1869 345.013 52.0598Z" stroke="white"/>
<path d="M324.961 65.1362C328.099 70.5714 327.463 77.9589 323.41 86.7806C319.364 95.5878 311.96 105.714 301.773 116.519C281.404 138.124 249.99 162.359 212.356 184.087C174.721 205.815 138.026 220.903 109.131 227.741C94.6805 231.16 82.2093 232.509 72.559 231.609C62.8928 230.708 56.1767 227.566 53.0387 222.131C49.9007 216.696 50.5375 209.308 54.5902 200.486C58.6362 191.679 66.04 181.553 76.2267 170.748C96.5957 149.143 128.01 124.908 165.644 103.18C203.279 81.4522 239.974 66.3639 268.869 59.5264C283.32 56.1069 295.791 54.758 305.441 55.6577C315.107 56.5588 321.823 59.7011 324.961 65.1362Z" stroke="white"/>
</svg>
